<svg width="110" height="36" viewBox="0 0 110 36" fill="none" xmlns="http://www.w3.org/2000/svg">
<path d="M28.9761 0.439999V35H23.3601V19.616H6.00806V35H0.368061V0.439999H6.00806V15.56H23.3601V0.439999H28.9761ZM48.4438 30.464C49.7718 30.464 50.9558 30.24 51.9958 29.792C53.0518 29.344 53.9398 28.72 54.6598 27.92C55.3958 27.12 55.9558 26.16 56.3398 25.04C56.7238 23.904 56.9158 22.648 56.9158 21.272V0.439999H62.5078V21.272C62.5078 23.304 62.1798 25.184 61.5238 26.912C60.8838 28.64 59.9558 30.136 58.7398 31.4C57.5238 32.648 56.0438 33.632 54.2998 34.352C52.5718 35.056 50.6198 35.408 48.4438 35.408C46.2678 35.408 44.3078 35.056 42.5638 34.352C40.8358 33.632 39.3638 32.648 38.1478 31.4C36.9318 30.136 35.9958 28.64 35.3398 26.912C34.6998 25.184 34.3798 23.304 34.3798 21.272V0.439999H39.9958V21.248C39.9958 22.624 40.1878 23.88 40.5718 25.016C40.9558 26.136 41.5078 27.104 42.2278 27.92C42.9478 28.72 43.8278 29.344 44.8678 29.792C45.9238 30.24 47.1158 30.464 48.4438 30.464ZM73.5362 35H67.8962V0.439999H73.5362V35ZM109.66 17.72C109.66 20.28 109.244 22.624 108.412 24.752C107.58 26.864 106.404 28.68 104.884 30.2C103.38 31.72 101.564 32.904 99.4363 33.752C97.3243 34.584 94.9723 35 92.3803 35H79.3243V0.439999H92.3803C94.9723 0.439999 97.3243 0.863998 99.4363 1.712C101.564 2.544 103.38 3.72 104.884 5.24C106.404 6.76 107.58 8.584 108.412 10.712C109.244 12.824 109.66 15.16 109.66 17.72ZM103.924 17.72C103.924 15.736 103.652 13.952 103.108 12.368C102.58 10.784 101.812 9.448 100.804 8.36C99.8123 7.272 98.6043 6.44 97.1803 5.864C95.7563 5.272 94.1563 4.976 92.3803 4.976H84.9643V30.464H92.3803C94.1563 30.464 95.7563 30.176 97.1803 29.6C98.6043 29.024 99.8123 28.192 100.804 27.104C101.812 26 102.58 24.664 103.108 23.096C103.652 21.512 103.924 19.72 103.924 17.72Z" fill="#283959"/>
</svg>
